<svg xmlns="http://www.w3.org/2000/svg" viewBox="0 0 24 24" fill="white"><path d="M20.16 12.594l-4.995 1.09c-.285.063-.428.353-.285.612l2.339 4.14c.238.42-.093.939-.561.876l-4.476-.6c-.29-.04-.542.18-.52.472l.395 5.14c.032.42-.467.656-.762.36l-3.534-3.546c-.21-.21-.552-.178-.72.066l-2.983 4.31c-.244.352-.776.19-.806-.244l-.485-6.95c-.018-.262-.26-.447-.516-.393L.675 18.77c-.418.086-.72-.39-.46-.724l3.696-4.748c.175-.226.1-.553-.157-.672L.242 11.3c-.38-.177-.32-.74.09-.837l5.694-1.348c.262-.062.405-.342.293-.583L4.186 4.26c-.173-.37.165-.787.56-.69l5.63 1.378c.268.065.53-.12.537-.395l.098-4.195c.01-.44.588-.578.799-.19l2.888 5.305c.135.248.447.333.67.182l4.453-3.016c.33-.224.77.084.683.478l-1.13 5.137c-.058.264.129.52.397.545l5.506.507c.442.04.53.642.134.834l-4.654 2.26c-.248.12-.33.43-.19.665l2.28 3.827c.225.378-.138.837-.556.703l-4.808-1.539c-.272-.087-.555.09-.597.374l-.626 4.173"/></svg>